HIERARCHY
ROOT Hips
{
	OFFSET	0.00	0.00	0.00
	CHANNELS 6 Xposition Yposition Zposition Zrotation Xrotation Yrotation
	JOINT Spine
	{
		OFFSET	 0.00	0.01	 0.00
		CHANNELS 3 Zrotation Xrotation Yrotation
		JOINT Spine1
		{
			OFFSET	 0.00	 2.45913012437421	 0.00
			CHANNELS 3 Zrotation Xrotation Yrotation
            JOINT Neck
            {
                OFFSET	 0.00	 2.48462964506057	 0.00
                CHANNELS 3 Zrotation Xrotation Yrotation
                JOINT Head
                {
                    OFFSET	 0.00	 0.927524780924562	 0.00
                    CHANNELS 3 Zrotation Xrotation Yrotation
                    End Site 
                    {
                        OFFSET	 0.00	 1.14999962169752	 0.00
                    }
                }
            }
			JOINT LeftShoulder
			{
				OFFSET	 0.00	 2.48462964506057	 0.00
				CHANNELS 3 Zrotation Xrotation Yrotation
				JOINT LeftUpArm
				{
					OFFSET	 0.00	 1.24881979654096	 0.00
					CHANNELS 3 Zrotation Xrotation Yrotation
					JOINT LeftForeArm
					{
						OFFSET	 0.00	2.59758046908119	 0.00
						CHANNELS 3 Zrotation Xrotation Yrotation
						JOINT LeftHand
						{
							OFFSET	 0.00	2.45542024364365	 0.00
							CHANNELS 3 Zrotation Xrotation Yrotation
							JOINT LeftHandThumb 
							{
								OFFSET	 0.00	0.00	 0.00
								CHANNELS 3 Zrotation Xrotation Yrotation
								End Site
								{
									OFFSET	 0.00	0.00	1.00000003353624
								}
							}
							JOINT L_Wrist_End 
							{
								OFFSET	 0.00	0.99999967115358	 0.00
								CHANNELS 3 Zrotation Xrotation Yrotation
								End Site 
								{
									OFFSET	 0.00	 0.00	 0.00
								}
							}
						}
					}
				}
			}
			JOINT RightShoulder
			{
				OFFSET	 0.00	 2.48462964506057	 0.00
				CHANNELS 3 Zrotation Xrotation Yrotation
				JOINT RightUpArm
				{
					OFFSET	 0.00	 1.24881979654096	 0.00
					CHANNELS 3 Zrotation Xrotation Yrotation
					JOINT RightForeArm
					{
						OFFSET	 0.00	2.59758046908119	 0.00
						CHANNELS 3 Zrotation Xrotation Yrotation
						JOINT RightHand
						{
							OFFSET	 0.00	2.45542024364365	 0.00
							CHANNELS 3 Zrotation Xrotation Yrotation
							JOINT RightHandThumb 
							{
								OFFSET	 0.00	0.00	 0.00
								CHANNELS 3 Zrotation Xrotation Yrotation
								End Site
								{
									OFFSET	 0.00	0.00	1.00000003353624
								}
							}
							JOINT R_Wrist_End 
							{
								OFFSET	 0.00	0.99999967115358	 0.00
								CHANNELS 3 Zrotation Xrotation Yrotation
								End Site 
								{
									OFFSET	 0.00	 0.00	 0.00
								}
							}
						}
					}
				}
			}
		}
	}
	JOINT LeftUpLeg
	{
		OFFSET	 1.2719394002717	 0.00	 0.00
		CHANNELS 3 Zrotation Xrotation Yrotation
		JOINT LeftLowLeg
		{
			OFFSET	 0.00	-4.3429100912261	 0.00
			CHANNELS 3 Zrotation Xrotation Yrotation
			JOINT LeftFoot
			{
				OFFSET	 0.00	-4.48767017425826	 0.00
				CHANNELS 3 Zrotation Xrotation Yrotation
				JOINT LeftToeBase
                {
                    OFFSET	 0.00	0.00	 1.51507020887566
                    CHANNELS 3 Zrotation Xrotation Yrotation
                    End Site 
                    {
                        OFFSET	 0.00	0.00	 0.75000010571191
                    }
                }
			}
		}
	}
	JOINT RightUpLeg
	{
		OFFSET	 -1.2719393604653	 0.00	 0.00
		CHANNELS 3 Zrotation Xrotation Yrotation
		JOINT RightLowLeg
		{
			OFFSET	 0.00	-4.3429100912261	 0.00
			CHANNELS 3 Zrotation Xrotation Yrotation
			JOINT RightFoot
			{
				OFFSET	 0.00	-4.48767017425826	 0.00
				CHANNELS 3 Zrotation Xrotation Yrotation
				JOINT RightToeBase
                {
                    OFFSET	 0.00	0.00	 1.51507020887566
                    CHANNELS 3 Zrotation Xrotation Yrotation
                    End Site 
                    {
                        OFFSET	 0.00	0.00	 0.749999965609858
                    }
                }   
			}
		}
	}
}
MOTION 
Frames:	11 
Frame Time: 0.02 
 1.147969970703125 6.652479858398437 9.784650268554687 -149.538 81.7026 151.103 2.96287 -10.1174 -1.4364 0.671408 5.98404 -1.87674 -2.63956 34.2179 4.08367 15.0644 -50.6891 10.7736 -91.86856 -13.822 -3.41481 -9.01857 2.97392 -28.9598 0.0 20.3746 0.0 23.1466 -8.63397 28.4114 0.0 0.0 0.0 0.0 0.0 0.0 98.71418 -10.1897 -0.113177 10.6954 0.0942281 35.0341 0.0 21.9126 0.0 -18.9421 -3.20898 -24.6322 0.0 0.0 0.0 0.0 0.0 0.0 5.93441 -6.17278 -1.8698 0.0 8.05852 0.0 9.70176 4.8450003 0.80521 0.0 -32.8475 0.0 3.41385 -3.46374 5.64847 0.0 6.64251 0.0 8.19978 9.41935 -7.68667 0.0 -27.153801 0.0 
  1.147969970703125 6.652479858398437 9.784650268554687 -149.538 81.7026 151.103 2.96287 -10.1174 -1.4364 0.671408 5.98404 -1.87674 -2.63956 34.2179 4.08367 15.0644 -50.6891 10.7736 -91.86856 -13.822 -3.41481 -9.01857 2.97392 -28.9598 0.0 20.3746 0.0 23.1466 -8.63397 28.4114 0.0 0.0 0.0 0.0 0.0 0.0 98.71418 -10.1897 -0.113177 10.6954 0.0942281 35.0341 0.0 21.9126 0.0 -18.9421 -3.20898 -24.6322 0.0 0.0 0.0 0.0 0.0 0.0 5.93441 -6.17278 -1.8698 0.0 8.05852 0.0 9.70176 4.8450003 0.80521 0.0 -32.8475 0.0 3.41385 -3.46374 5.64847 0.0 6.64251 0.0 8.19978 9.41935 -7.68667 0.0 -27.153801 0.0 
  1.1481099700927735 6.652349853515625 9.784719848632813 -149.499 81.7052 151.065 2.98741 -10.0822 -1.43095 0.646682 5.96247 -1.87831 -2.61253 34.207 4.06726 15.1001 -50.6964 10.8092 -91.863434 -13.8236 -3.41571 -9.03372 2.97945 -28.9793 0.0 20.3134 0.0 23.3129 -8.80359 27.8749 0.0 0.0 0.0 0.0 0.0 0.0 98.69828 -10.1401 -0.063656 10.7313 -0.0151432 35.105 0.0 21.9429 0.0 -18.892 -3.26847 -24.6366 0.0 0.0 0.0 0.0 0.0 0.0 5.93907 -6.15988 -1.84172 0.0 8.04532 0.0 9.71017 4.8451004 0.77975 0.0 -32.8546 0.0 3.41803 -3.46292 5.67086 0.0 6.65211 0.0 8.19853 9.41605 -7.70974 0.0 -27.172699 0.0 
  1.1481700134277344 6.652219848632813 9.78469970703125 -149.527 81.6989 151.093 2.99571 -10.0684 -1.41961 0.639699 5.95342 -1.86911 -2.57865 34.206 4.02673 15.1324 -50.7139 10.8209 -91.85318 -13.8088 -3.40609 -9.08005 2.98908 -29.127 0.0 20.3056 0.0 23.3662 -8.82106 27.9703 0.0 0.0 0.0 0.0 0.0 0.0 98.72048 -10.2059 -0.103244 10.709 0.0494709 35.2544 0.0 21.9386 0.0 -18.8583 -3.30692 -24.6525 0.0 0.0 0.0 0.0 0.0 0.0 5.93869 -6.17185 -1.83201 0.0 8.05461 0.0 9.7458 4.8367996 0.781837 0.0 -32.8512 0.0 3.41783 -3.46786 5.67392 0.0 6.64893 0.0 8.19983 9.41965 -7.71694 0.0 -27.1572 0.0 
  1.1481600189208985 6.652009887695312 9.784559936523438 -149.523 81.6964 151.091 3.00021 -10.0633 -1.42395 0.641594 5.95824 -1.87482 -2.57796 34.1735 4.01563 15.1298 -50.6811 10.7606 -91.85004 -13.7965 -3.38694 -9.10982 2.95309 -29.195 0.0 20.3443 0.0 23.3965 -8.86128 28.0365 0.0 0.0 0.0 0.0 0.0 0.0 98.71766 -10.2011 -0.116838 10.7059 0.0437196 35.2468 0.0 21.9505 0.0 -18.8281 -3.28558 -24.6699 0.0 0.0 0.0 0.0 0.0 0.0 5.93985 -6.17671 -1.85373 0.0 8.063 0.0 9.73179 4.8233004 0.793643 0.0 -32.8237 0.0 3.42032 -3.46818 5.66726 0.0 6.65005 0.0 8.19035 9.4159 -7.71552 0.0 -27.164799 0.0 
  1.148030014038086 6.651640014648438 9.78447998046875 -149.53 81.6984 151.1 3.00191 -10.0666 -1.4228 0.638861 5.98044 -1.87434 -2.57744 34.1663 4.01052 15.1341 -50.6772 10.7415 -91.8559 -13.7742 -3.38812 -9.0967 2.91032 -29.1114 0.0 20.3637 0.0 23.402 -8.88729 28.0107 0.0 0.0 0.0 0.0 0.0 0.0 98.70559 -10.1934 -0.0875127 10.7262 0.0127155 35.2001 0.0 21.9905 0.0 -18.8194 -3.36754 -24.6722 0.0 0.0 0.0 0.0 0.0 0.0 5.94035 -6.17748 -1.82262 0.0 8.07141 0.0 9.72038 4.8233004 0.760933 0.0 -32.8543 0.0 3.41897 -3.4611 5.65022 0.0 6.64479 0.0 8.18501 9.4102 -7.70653 0.0 -27.1655 0.0 
  1.1477899932861328 6.651190185546875 9.784390258789063 -149.566 81.691 151.122 3.00079 -10.0782 -1.42374 0.644164 6.00842 -1.8751 -2.57151 34.1569 4.00035 15.1289 -50.649 10.7134 -91.85017 -13.7726 -3.39074 -9.10666 2.8851 -29.0804 0.0 20.3604 0.0 23.3607 -8.86011 28.0889 0.0 0.0 0.0 0.0 0.0 0.0 98.702484 -10.1381 -0.10462 10.7253 -0.0329779 35.2311 0.0 21.9563 0.0 -18.7407 -3.28906 -24.6383 0.0 0.0 0.0 0.0 0.0 0.0 5.94025 -6.17282 -1.8482 0.0 8.05566 0.0 9.73621 4.8261995 0.803228 0.0 -32.8471 0.0 3.41914 -3.47073 5.66029 0.0 6.64758 0.0 8.19816 9.40847 -7.69308 0.0 -27.1543 0.0 
  1.1474700164794922 6.650780029296875 9.78447998046875 -149.603 81.6791 151.15 2.998 -10.0852 -1.41885 0.652485 6.01184 -1.86921 -2.55261 34.1886 3.97943 15.1255 -50.6411 10.7304 -91.84049 -13.7832 -3.3803 -9.13629 2.91207 -29.1614 0.0 20.3615 0.0 23.3344 -8.88357 28.1166 0.0 0.0 0.0 0.0 0.0 0.0 98.68844 -10.1399 -0.130458 10.7359 -0.0207956 35.2413 0.0 21.9337 0.0 -18.7308 -3.31577 -24.7529 0.0 0.0 0.0 0.0 0.0 0.0 5.94656 -6.17357 -1.8176 0.0 8.04157 0.0 9.70125 4.8285 0.773582 0.0 -32.8534 0.0 3.42258 -3.48011 5.68698 0.0 6.64317 0.0 8.20068 9.41321 -7.70721 0.0 -27.1625 0.0 
  1.147239990234375 6.6501397705078125 9.78447998046875 -149.681 81.661 151.228 2.99959 -10.1047 -1.41514 0.651033 6.0146 -1.86582 -2.54615 34.2303 3.97731 15.1201 -50.6301 10.7517 -91.83164 -13.7786 -3.38718 -9.16215 2.91417 -29.2136 0.0 20.3837 0.0 23.2691 -8.93808 28.0227 0.0 0.0 0.0 0.0 0.0 0.0 98.71105 -10.1478 -0.122606 10.6965 -0.0107627 35.1966 0.0 21.9143 0.0 -18.7142 -3.30742 -24.8281 0.0 0.0 0.0 0.0 0.0 0.0 5.94702 -6.18292 -1.80302 0.0 8.02538 0.0 9.71405 4.8335 0.771545 0.0 -32.859802 0.0 3.42277 -3.48416 5.6855 0.0 6.61685 0.0 8.18618 9.41986 -7.71436 0.0 -27.147 0.0 
  1.1468000030517578 6.649749755859375 9.784450073242187 -149.732 81.6501 151.279 2.99222 -10.1106 -1.42012 0.667713 6.01262 -1.86856 -2.56769 34.2794 4.01368 15.0906 -50.6066 10.7776 -91.85838 -13.7768 -3.3864 -9.14957 2.91544 -29.2064 0.0 20.3872 0.0 23.2596 -8.88985 28.0669 0.0 0.0 0.0 0.0 0.0 0.0 98.73011 -10.1425 -0.0886162 10.6655 0.00205204 35.2176 0.0 21.9077 0.0 -18.7113 -3.30721 -24.8946 0.0 0.0 0.0 0.0 0.0 0.0 5.94872 -6.19493 -1.78512 0.0 8.02863 0.0 9.71386 4.8294 0.756973 0.0 -32.8593 0.0 3.42371 -3.48235 5.6859 0.0 6.5934 0.0 8.18969 9.42108 -7.71655 0.0 -27.1442 0.0 
  1.1463899993896485 6.649439697265625 9.7843701171875 -149.782 81.6404 151.335 2.99138 -10.1133 -1.42822 0.664592 6.00274 -1.87655 -2.57536 34.3293 4.03446 15.0746 -50.587 10.8084 -91.86392 -13.7598 -3.37703 -9.1343 2.8809 -29.0998 0.0 20.399 0.0 23.2971 -8.86872 28.0942 0.0 0.0 0.0 0.0 0.0 0.0 98.72164 -10.1402 -0.103314 10.6906 0.0220128 35.2104 0.0 21.9087 0.0 -18.7339 -3.2382 -24.9478 0.0 0.0 0.0 0.0 0.0 0.0 5.94742 -6.21069 -1.79552 0.0 8.03539 0.0 9.70159 4.8310003 0.763068 0.0 -32.883102 0.0 3.42371 -3.49195 5.65901 0.0 6.59353 0.0 8.1828 9.420771 -7.69922 0.0 -27.1697 0.0 
